# Blender v3.0.0 OBJ File: 'Herz.blend'
# www.blender.org
o Zylinder.001
v 0.176578 1.800720 -0.186016
v -0.082575 1.805730 0.187492
v 0.055502 1.928866 -0.271742
v -0.203651 1.933876 0.101767
v -0.083970 2.025610 -0.369810
v -0.343123 2.030620 0.003698
v -0.236479 2.087236 -0.476453
v -0.495632 2.092245 -0.102944
v -0.396165 2.111374 -0.587572
v -0.655318 2.116384 -0.214063
v -0.556889 2.097097 -0.698896
v -0.816042 2.102107 -0.325388
v -0.712477 2.044955 -0.806149
v -0.971630 2.049964 -0.432640
v -0.856948 1.956949 -0.905208
v -1.116101 1.961959 -0.531699
v -0.984751 1.836464 -0.992266
v -1.243904 1.841473 -0.618757
v -1.090974 1.688128 -1.063977
v -1.350127 1.693137 -0.690469
v -1.171535 1.517642 -1.117587
v -1.430688 1.522652 -0.744079
v -1.223339 1.331559 -1.151034
v -1.482492 1.336569 -0.777526
v -1.244394 1.137028 -1.163034
v -1.503547 1.142038 -0.789526
v -1.233892 0.941527 -1.153125
v -1.493045 0.946536 -0.779617
v -1.192236 0.752567 -1.121688
v -1.451389 0.757576 -0.748180
v -1.121026 0.577410 -1.069931
v -1.380179 0.582420 -0.696423
v -1.023000 0.422788 -0.999843
v -1.282153 0.427797 -0.626335
v 1.297575 0.355864 0.612034
v 1.038423 0.360873 0.985543
v 1.403799 0.504199 0.683746
v 1.144646 0.509209 1.057255
v 1.484360 0.674685 0.737356
v 1.225207 0.679695 1.110865
v 1.536164 0.860769 0.770803
v 1.277011 0.865778 1.144312
v 1.557219 1.055299 0.782803
v 1.298066 1.060309 1.156312
v 1.546717 1.250801 0.772894
v 1.287564 1.255810 1.146403
v 1.505060 1.439761 0.741457
v 1.245907 1.444770 1.114966
v 1.433851 1.614918 0.689700
v 1.174698 1.619927 1.063209
v 1.335824 1.769539 0.619612
v 1.076671 1.774549 0.993121
v 1.214749 1.897685 0.533887
v 0.955596 1.902695 0.907396
v 1.075276 1.994429 0.435819
v 0.816123 1.999439 0.809327
v 0.922767 2.056055 0.329176
v 0.663614 2.061064 0.702685
v 0.763082 2.080193 0.218057
v 0.503929 2.085203 0.591566
v 0.602357 2.065917 0.106732
v 0.343204 2.070926 0.480241
v 0.446770 2.013774 -0.000520
v 0.187617 2.018783 0.372988
v 0.302299 1.925768 -0.099579
v 0.043146 1.930778 0.273930
v 0.174496 1.805283 -0.186637
v -0.084657 1.810292 0.186872
v -1.026712 0.424485 -1.003373
v -1.285865 0.429494 -0.629864
v 0.096367 -1.024935 -0.204701
v -0.162786 -1.019925 0.168807
v 0.172865 1.802417 -0.189545
v -0.086287 1.807426 0.183963
v 1.295945 0.352998 0.609126
v 1.036792 0.358008 0.982634
vt 1.000000 1.000000
vt 1.000000 0.500000
vt 0.968750 0.500000
vt 0.968750 1.000000
vt 0.937500 0.500000
vt 0.937500 1.000000
vt 0.906250 0.500000
vt 0.906250 1.000000
vt 0.875000 0.500000
vt 0.875000 1.000000
vt 0.843750 0.500000
vt 0.843750 1.000000
vt 0.812500 0.500000
vt 0.812500 1.000000
vt 0.781250 0.500000
vt 0.781250 1.000000
vt 0.750000 0.500000
vt 0.750000 1.000000
vt 0.718750 0.500000
vt 0.718750 1.000000
vt 0.687500 0.500000
vt 0.687500 1.000000
vt 0.656250 0.500000
vt 0.656250 1.000000
vt 0.625000 0.500000
vt 0.625000 1.000000
vt 0.593750 0.500000
vt 0.593750 1.000000
vt 0.562500 0.500000
vt 0.562500 1.000000
vt 0.531250 0.500000
vt 0.531250 1.000000
vt 0.500000 0.500000
vt 1.000000 1.000000
vt 1.000000 0.500000
vt 0.968750 0.500000
vt 0.968750 1.000000
vt 0.937500 0.500000
vt 0.937500 1.000000
vt 0.906250 0.500000
vt 0.906250 1.000000
vt 0.875000 0.500000
vt 0.875000 1.000000
vt 0.843750 0.500000
vt 0.843750 1.000000
vt 0.812500 0.500000
vt 0.812500 1.000000
vt 0.781250 0.500000
vt 0.781250 1.000000
vt 0.750000 0.500000
vt 0.750000 1.000000
vt 0.718750 0.500000
vt 0.718750 1.000000
vt 0.687500 0.500000
vt 0.687500 1.000000
vt 0.656250 0.500000
vt 0.656250 1.000000
vt 0.625000 0.500000
vt 0.625000 1.000000
vt 0.593750 0.500000
vt 0.593750 1.000000
vt 0.562500 0.500000
vt 0.562500 1.000000
vt 0.531250 0.500000
vt 0.531250 1.000000
vt 0.500000 0.500000
vt 0.625000 0.000000
vt 0.375000 0.000000
vt 0.375000 0.250000
vt 0.625000 0.250000
vt 0.375000 0.500000
vt 0.625000 0.500000
vt 0.375000 0.750000
vt 0.625000 0.750000
vt 0.375000 1.000000
vt 0.125000 0.500000
vt 0.125000 0.750000
vt 0.875000 0.750000
vt 0.500000 1.000000
vt 0.500000 1.000000
vt 0.625000 1.000000
vt 0.875000 0.500000
vn 0.5419 0.7567 0.3658
vn 0.4110 0.8697 0.2735
vn 0.2643 0.9492 0.1706
vn 0.1074 0.9923 0.0612
vn -0.0536 0.9973 -0.0505
vn -0.2125 0.9639 -0.1604
vn -0.3633 0.8935 -0.2640
vn -0.5000 0.7888 -0.3575
vn -0.6176 0.6537 -0.4373
vn -0.7115 0.4935 -0.5003
vn -0.7780 0.3144 -0.5440
vn -0.8146 0.1231 -0.5668
vn -0.8199 -0.0728 -0.5679
vn -0.7937 -0.2660 -0.5471
vn -0.7370 -0.4489 -0.5053
vn -0.6519 -0.6146 -0.4441
vn -0.5700 0.0110 0.8216
vn 0.5700 -0.0110 -0.8216
vn 0.5615 -0.7247 0.3993
vn 0.6176 -0.6537 0.4373
vn 0.7115 -0.4935 0.5003
vn 0.7780 -0.3144 0.5440
vn 0.8146 -0.1231 0.5668
vn 0.8199 0.0728 0.5679
vn 0.7937 0.2660 0.5471
vn 0.7370 0.4489 0.5053
vn 0.6519 0.6146 0.4441
vn -0.5998 -0.6890 -0.4069
vn 0.5998 0.6890 0.4069
vn -0.5615 0.7247 -0.3993
s off
f 2/1/1 1/2/1 3/3/1
f 4/4/2 3/3/2 5/5/2
f 6/6/3 5/5/3 7/7/3
f 8/8/4 7/7/4 9/9/4
f 10/10/5 9/9/5 11/11/5
f 12/12/6 11/11/6 13/13/6
f 14/14/7 13/13/7 15/15/7
f 16/16/8 15/15/8 17/17/8
f 18/18/9 17/17/9 19/19/9
f 20/20/10 19/19/10 21/21/10
f 22/22/11 21/21/11 23/23/11
f 24/24/12 23/23/12 25/25/12
f 26/26/13 25/25/13 27/27/13
f 28/28/14 27/27/14 29/29/14
f 30/30/15 29/29/15 31/31/15
f 32/32/16 31/31/16 33/33/16
f 2/1/17 20/20/17 28/28/17
f 3/3/18 19/19/18 11/11/18
f 33/33/19 1/2/19 2/1/19
f 36/34/20 35/35/20 37/36/20
f 38/37/21 37/36/21 39/38/21
f 40/39/22 39/38/22 41/40/22
f 42/41/23 41/40/23 43/42/23
f 44/43/24 43/42/24 45/44/24
f 46/45/25 45/44/25 47/46/25
f 48/47/26 47/46/26 49/48/26
f 50/49/27 49/48/27 51/50/27
f 52/51/1 51/50/1 53/52/1
f 54/53/2 53/52/2 55/54/2
f 56/55/3 55/54/3 57/56/3
f 58/57/4 57/56/4 59/58/4
f 60/59/5 59/58/5 61/60/5
f 62/61/6 61/60/6 63/62/6
f 64/63/7 63/62/7 65/64/7
f 66/65/8 65/64/8 67/66/8
f 36/34/17 46/45/17 54/53/17
f 37/36/18 61/60/18 53/52/18
f 67/66/28 35/35/28 36/34/28
f 70/67/28 69/68/28 71/69/28
f 72/70/19 71/69/19 75/71/19
f 76/72/29 75/71/29 73/73/29
f 74/74/30 73/73/30 69/75/30
f 75/71/18 71/76/18 69/77/18
f 76/72/17 74/74/17 70/78/17
f 2/1/1 3/3/1 4/4/1
f 4/4/2 5/5/2 6/6/2
f 6/6/3 7/7/3 8/8/3
f 8/8/4 9/9/4 10/10/4
f 10/10/5 11/11/5 12/12/5
f 12/12/6 13/13/6 14/14/6
f 14/14/7 15/15/7 16/16/7
f 16/16/8 17/17/8 18/18/8
f 18/18/9 19/19/9 20/20/9
f 20/20/10 21/21/10 22/22/10
f 22/22/11 23/23/11 24/24/11
f 24/24/12 25/25/12 26/26/12
f 26/26/13 27/27/13 28/28/13
f 28/28/14 29/29/14 30/30/14
f 30/30/15 31/31/15 32/32/15
f 32/32/16 33/33/16 34/79/16
f 6/6/17 8/8/17 4/4/17
f 4/4/17 8/8/17 2/1/17
f 2/1/17 32/32/17 34/79/17
f 32/32/17 2/1/17 30/30/17
f 30/30/17 2/1/17 28/28/17
f 28/28/17 20/20/17 26/26/17
f 26/26/17 20/20/17 24/24/17
f 24/24/17 20/20/17 22/22/17
f 20/20/17 16/16/17 18/18/17
f 16/16/17 20/20/17 14/14/17
f 14/14/17 20/20/17 12/12/17
f 12/12/17 8/8/17 10/10/17
f 12/12/17 20/20/17 8/8/17
f 8/8/17 20/20/17 2/1/17
f 33/33/18 3/3/18 1/2/18
f 3/3/18 7/7/18 5/5/18
f 7/7/18 3/3/18 9/9/18
f 9/9/18 3/3/18 11/11/18
f 11/11/18 15/15/18 13/13/18
f 15/15/18 19/19/18 17/17/18
f 19/19/18 23/23/18 21/21/18
f 23/23/18 27/27/18 25/25/18
f 27/27/18 31/31/18 29/29/18
f 31/31/18 3/3/18 33/33/18
f 11/11/18 19/19/18 15/15/18
f 19/19/18 27/27/18 23/23/18
f 27/27/18 19/19/18 31/31/18
f 31/31/18 19/19/18 3/3/18
f 33/33/19 2/1/19 34/79/19
f 36/34/20 37/36/20 38/37/20
f 38/37/21 39/38/21 40/39/21
f 40/39/22 41/40/22 42/41/22
f 42/41/23 43/42/23 44/43/23
f 44/43/24 45/44/24 46/45/24
f 46/45/25 47/46/25 48/47/25
f 48/47/26 49/48/26 50/49/26
f 50/49/27 51/50/27 52/51/27
f 52/51/1 53/52/1 54/53/1
f 54/53/2 55/54/2 56/55/2
f 56/55/3 57/56/3 58/57/3
f 58/57/4 59/58/4 60/59/4
f 60/59/5 61/60/5 62/61/5
f 62/61/6 63/62/6 64/63/6
f 64/63/7 65/64/7 66/65/7
f 66/65/8 67/66/8 68/80/8
f 40/39/17 36/34/17 38/37/17
f 36/34/17 66/65/17 68/80/17
f 66/65/17 62/61/17 64/63/17
f 62/61/17 58/57/17 60/59/17
f 58/57/17 62/61/17 56/55/17
f 56/55/17 62/61/17 54/53/17
f 54/53/17 46/45/17 52/51/17
f 52/51/17 46/45/17 50/49/17
f 50/49/17 46/45/17 48/47/17
f 46/45/17 36/34/17 44/43/17
f 44/43/17 36/34/17 42/41/17
f 42/41/17 36/34/17 40/39/17
f 36/34/17 54/53/17 66/65/17
f 66/65/17 54/53/17 62/61/17
f 67/66/18 37/36/18 35/35/18
f 37/36/18 41/40/18 39/38/18
f 41/40/18 37/36/18 43/42/18
f 43/42/18 37/36/18 45/44/18
f 45/44/18 49/48/18 47/46/18
f 49/48/18 53/52/18 51/50/18
f 53/52/18 57/56/18 55/54/18
f 57/56/18 53/52/18 59/58/18
f 59/58/18 53/52/18 61/60/18
f 61/60/18 37/36/18 63/62/18
f 63/62/18 37/36/18 65/64/18
f 65/64/18 37/36/18 67/66/18
f 45/44/18 37/36/18 49/48/18
f 49/48/18 37/36/18 53/52/18
f 67/66/28 36/34/28 68/80/28
f 70/67/28 71/69/28 72/70/28
f 72/70/19 75/71/19 76/72/19
f 76/72/29 73/73/29 74/74/29
f 74/74/30 69/75/30 70/81/30
f 75/71/18 69/77/18 73/73/18
f 76/72/17 70/78/17 72/82/17
