# Blender v3.0.0 OBJ File: 'Stern.blend'
# www.blender.org
o Kreis
v -0.436824 -0.158997 -0.102002
v -0.379060 -0.106785 -0.142886
v -0.456482 -0.095944 -0.102606
v -0.415906 -0.130557 -0.130714
v -0.425281 -0.121030 -0.125582
v -0.422952 -0.107955 -0.130931
v -0.437728 -0.124689 -0.102381
v -0.621936 -0.763165 -0.094298
v -0.600362 -0.779237 -0.094230
v -0.562801 -0.706477 -0.135239
v -0.620471 -0.783713 -0.094076
v -0.606880 -0.765569 -0.117445
v -0.577032 -0.749844 -0.122965
v -0.600332 -0.732486 -0.123039
v -0.074411 -0.428985 -0.100852
v -0.008368 -0.429778 -0.101183
v -0.040747 -0.358820 -0.141812
v -0.041278 -0.420034 -0.101123
v -0.041240 -0.407131 -0.124363
v -0.029356 -0.401174 -0.129681
v -0.053030 -0.400890 -0.129562
v 0.509066 -0.792552 -0.099794
v 0.531017 -0.777003 -0.100081
v 0.472852 -0.718906 -0.140434
v 0.529061 -0.797509 -0.099842
v 0.515676 -0.779042 -0.123076
v 0.509869 -0.745811 -0.128607
v 0.486161 -0.762605 -0.128298
v 0.360390 -0.168565 -0.106001
v 0.381549 -0.106002 -0.106809
v 0.303489 -0.114977 -0.146310
v 0.362114 -0.134289 -0.106393
v 0.349526 -0.130329 -0.129469
v 0.347458 -0.117201 -0.134795
v 0.339874 -0.139628 -0.134505
v 0.886453 0.273958 -0.113655
v 0.878446 0.299641 -0.113901
v 0.804652 0.262168 -0.153105
v 0.897345 0.291443 -0.113907
v 0.875317 0.284356 -0.136810
v 0.841844 0.289089 -0.141881
v 0.850491 0.261352 -0.141616
v 0.247042 0.325424 -0.110937
v 0.194075 0.364882 -0.111106
v 0.177926 0.287760 -0.150164
v 0.214973 0.337657 -0.110909
v 0.206991 0.326844 -0.133843
v 0.193792 0.328920 -0.138989
v 0.212779 0.314776 -0.138928
v -0.011311 0.962486 -0.116725
v -0.038211 0.962809 -0.116591
v -0.025938 0.880935 -0.155742
v -0.024575 0.978249 -0.116833
v -0.024968 0.955044 -0.139668
v -0.039885 0.924659 -0.144442
v -0.010832 0.924310 -0.144588
v -0.257814 0.370306 -0.108839
v -0.311707 0.332130 -0.108135
v -0.243913 0.292823 -0.148048
v -0.279356 0.343590 -0.108429
v -0.271866 0.332591 -0.131441
v -0.277993 0.320666 -0.136467
v -0.258674 0.334351 -0.136719
v -0.943546 0.321508 -0.104762
v -0.952165 0.296025 -0.104433
v -0.871070 0.282280 -0.144700
v -0.962637 0.313766 -0.104577
v -0.941016 0.306155 -0.127700
v -0.916799 0.282562 -0.132751
v -0.907491 0.310084 -0.133106
v -0.435691 -0.156539 0.117981
v -0.455349 -0.093486 0.117378
v -0.377515 -0.103433 0.157091
v -0.436595 -0.122231 0.117602
v -0.423910 -0.118056 0.140586
v -0.421528 -0.104865 0.145617
v -0.414481 -0.127467 0.145833
v -0.620803 -0.760707 0.125685
v -0.561256 -0.703125 0.164738
v -0.599229 -0.776779 0.125754
v -0.598908 -0.729396 0.153509
v -0.605509 -0.762595 0.148724
v -0.575608 -0.746754 0.153583
v -0.619338 -0.781255 0.125907
v -0.073278 -0.426527 0.119131
v -0.039202 -0.355468 0.158165
v -0.007235 -0.427320 0.118800
v -0.051606 -0.397799 0.146985
v -0.039869 -0.404157 0.141806
v -0.027932 -0.398084 0.146866
v -0.040145 -0.417576 0.118861
v 0.510198 -0.790094 0.120189
v 0.474397 -0.715554 0.159543
v 0.532150 -0.774545 0.119902
v 0.487585 -0.759515 0.148250
v 0.517047 -0.776067 0.143093
v 0.511293 -0.742721 0.147940
v 0.530194 -0.795051 0.120141
v 0.361523 -0.166107 0.113982
v 0.305034 -0.111625 0.153667
v 0.382682 -0.103544 0.113174
v 0.341298 -0.136537 0.142042
v 0.350897 -0.127355 0.136700
v 0.348882 -0.114111 0.141753
v 0.363247 -0.131830 0.113590
v 0.887586 0.276417 0.106328
v 0.806197 0.265520 0.146872
v 0.879579 0.302099 0.106082
v 0.851916 0.264442 0.134932
v 0.876688 0.287330 0.129358
v 0.843268 0.292179 0.134667
v 0.898478 0.293901 0.106077
v 0.248174 0.327882 0.109046
v 0.179471 0.291112 0.149814
v 0.195208 0.367341 0.108878
v 0.214203 0.317866 0.137619
v 0.208362 0.329818 0.132326
v 0.195216 0.332011 0.137559
v 0.216106 0.340115 0.109074
v -0.010178 0.964944 0.103258
v -0.024393 0.884287 0.144235
v -0.037078 0.965267 0.103393
v -0.009408 0.927400 0.131960
v -0.023597 0.958018 0.126501
v -0.038461 0.927749 0.132106
v -0.023442 0.980707 0.103150
v -0.256681 0.372764 0.111144
v -0.242368 0.296175 0.151930
v -0.310575 0.334588 0.111849
v -0.257249 0.337441 0.139829
v -0.270495 0.335565 0.134728
v -0.276568 0.323756 0.140081
v -0.278223 0.346048 0.111554
v -0.942414 0.323966 0.115221
v -0.869525 0.285632 0.155277
v -0.951032 0.298483 0.115550
v -0.906066 0.313174 0.143441
v -0.939645 0.309129 0.138469
v -0.915374 0.285653 0.143797
v -0.961504 0.316224 0.115406
vt 0.000000 0.000000
vt 0.000000 0.000000
vt 0.000000 0.000000
vt 0.000000 0.000000
vt 0.000000 0.000000
vt 0.000000 0.000000
vt 0.000000 0.000000
vt 0.000000 0.000000
vt 0.000000 0.000000
vt 0.000000 0.000000
vt 0.000000 0.000000
vt 0.000000 0.000000
vt 0.000000 0.000000
vt 0.000000 0.000000
vt 0.000000 0.000000
vt 0.000000 0.000000
vt 0.000000 0.000000
vt 0.000000 0.000000
vt 0.000000 0.000000
vt 0.000000 0.000000
vt 0.000000 0.000000
vt 0.000000 0.000000
vt 0.000000 0.000000
vt 0.000000 0.000000
vt 0.000000 0.000000
vt 0.000000 0.000000
vt 0.000000 0.000000
vt 0.000000 0.000000
vt 0.000000 0.000000
vt 0.000000 0.000000
vt 0.000000 0.000000
vt 0.000000 0.000000
vt 0.000000 0.000000
vt 0.000000 0.000000
vt 0.000000 0.000000
vt 0.000000 0.000000
vt 0.000000 0.000000
vt 0.000000 0.000000
vt 0.000000 0.000000
vt 0.000000 0.000000
vt 0.000000 0.000000
vt 0.000000 0.000000
vt 0.000000 0.000000
vt 0.000000 0.000000
vt 0.000000 0.000000
vt 0.000000 0.000000
vt 0.000000 0.000000
vt 0.000000 0.000000
vt 0.000000 0.000000
vt 0.000000 0.000000
vt 0.000000 0.000000
vt 0.000000 0.000000
vt 0.000000 0.000000
vt 0.000000 0.000000
vt 0.000000 0.000000
vt 0.000000 0.000000
vt 0.000000 0.000000
vt 0.000000 0.000000
vt 0.000000 0.000000
vt 0.000000 0.000000
vt 0.000000 0.000000
vt 0.000000 0.000000
vt 0.000000 0.000000
vt 0.000000 0.000000
vt 0.000000 0.000000
vt 0.000000 0.000000
vt 0.000000 0.000000
vt 0.000000 0.000000
vt 0.000000 0.000000
vt 0.000000 0.000000
vt 0.000000 0.000000
vt 0.000000 0.000000
vt 0.000000 0.000000
vt 0.000000 0.000000
vt 0.000000 0.000000
vt 0.000000 0.000000
vt 0.000000 0.000000
vt 0.000000 0.000000
vt 0.000000 0.000000
vt 0.000000 0.000000
vt 0.000000 0.000000
vt 0.000000 0.000000
vt 0.000000 0.000000
vt 0.000000 0.000000
vt 0.000000 0.000000
vt 0.000000 0.000000
vt 0.000000 0.000000
vt 0.000000 0.000000
vt 0.000000 0.000000
vt 0.000000 0.000000
vt 0.000000 0.000000
vt 0.000000 0.000000
vt 0.000000 0.000000
vt 0.000000 0.000000
vt 0.000000 0.000000
vt 0.000000 0.000000
vt 0.000000 0.000000
vt 0.000000 0.000000
vt 0.000000 0.000000
vt 0.000000 0.000000
vt 0.000000 0.000000
vt 0.000000 0.000000
vt 0.000000 0.000000
vt 0.000000 0.000000
vt 0.000000 0.000000
vt 0.000000 0.000000
vt 0.000000 0.000000
vt 0.000000 0.000000
vt 0.000000 0.000000
vt 0.000000 0.000000
vt 0.000000 0.000000
vt 0.000000 0.000000
vt 0.000000 0.000000
vt 0.000000 0.000000
vt 0.000000 0.000000
vt 0.000000 0.000000
vt 0.000000 0.000000
vt 0.000000 0.000000
vt 0.000000 0.000000
vt 0.000000 0.000000
vt 0.000000 0.000000
vt 0.000000 0.000000
vt 0.000000 0.000000
vt 0.000000 0.000000
vt 0.000000 0.000000
vt 0.000000 0.000000
vt 0.000000 0.000000
vt 0.000000 0.000000
vt 0.000000 0.000000
vt 0.000000 0.000000
vt 0.000000 0.000000
vt 0.000000 0.000000
vt 0.000000 0.000000
vt 0.000000 0.000000
vt 0.000000 0.000000
vt 0.000000 0.000000
vt 0.000000 0.000000
vt 0.000000 0.000000
vt 0.000000 0.000000
vt 0.000000 0.000000
vn -0.0407 -0.9991 0.0114
vn 0.5740 0.8187 -0.0121
vn -0.0051 -0.0112 -0.9999
vn -0.9457 -0.3249 0.0085
vn -0.9628 -0.2699 0.0080
vn 0.9561 -0.2930 -0.0017
vn 0.9377 -0.3475 -0.0009
vn -0.6013 0.7990 -0.0058
vn -0.5543 0.8323 -0.0064
vn 0.0169 -0.9998 0.0111
vn 0.6203 0.7843 -0.0120
vn 0.7947 0.0276 0.6064
vn 0.2595 0.0901 0.9615
vn 0.6663 0.4394 0.6024
vn 0.8327 -0.0720 0.5491
vn -0.1795 0.8249 0.5361
vn 0.1606 0.2197 0.9623
vn -0.2034 0.7712 0.6032
vn 0.2279 0.7660 0.6010
vn 0.0081 0.2774 0.9607
vn 0.3335 0.7712 0.5422
vn -0.8323 0.0858 0.5477
vn -0.1456 0.2233 0.9638
vn -0.7877 0.0466 0.6143
vn -0.6495 0.4552 0.6090
vn -0.2476 0.0962 0.9641
vn -0.6226 0.5571 0.5496
vn -0.3310 -0.7635 0.5546
vn -0.2437 -0.0667 0.9676
vn -0.2791 -0.7330 0.6204
vn -0.6250 -0.4753 0.6193
vn -0.1543 -0.2030 0.9669
vn -0.7144 -0.4183 0.5609
vn 0.6316 -0.5492 0.5472
vn 0.0019 -0.2497 0.9683
vn 0.6196 -0.4902 0.6131
vn 0.2676 -0.7395 0.6177
vn 0.1591 -0.2068 0.9654
vn 0.1850 -0.8071 0.5606
vn 0.7252 0.4324 0.5358
vn 0.2517 -0.0727 0.9651
vn 0.7884 0.0140 -0.6150
vn 0.6600 0.4258 -0.6189
vn 0.2496 0.0686 -0.9659
vn 0.8339 0.0535 -0.5492
vn 0.1506 0.1981 -0.9685
vn -0.3152 0.7666 -0.5595
vn -0.2097 0.7576 -0.6182
vn -0.0018 0.2558 -0.9667
vn 0.2216 0.7524 -0.6203
vn 0.1990 0.8081 -0.5544
vn -0.1556 0.2018 -0.9670
vn -0.8343 -0.0644 -0.5476
vn -0.7940 0.0330 -0.6071
vn -0.2575 0.0747 -0.9634
vn -0.6558 0.4416 -0.6123
vn -0.7148 0.4375 -0.5456
vn -0.2536 -0.0883 -0.9633
vn -0.2044 -0.8149 -0.5424
vn -0.2853 -0.7466 -0.6010
vn -0.1642 -0.2246 -0.9605
vn -0.6313 -0.4889 -0.6021
vn -0.6447 -0.5461 -0.5349
vn -0.0081 -0.2712 -0.9625
vn 0.7040 -0.4478 -0.5512
vn 0.6133 -0.5038 -0.6083
vn 0.1492 -0.2283 -0.9621
vn 0.2613 -0.7532 -0.6037
vn 0.3125 -0.7834 -0.5372
vn 0.2418 -0.0942 -0.9657
vn 0.6356 0.5296 -0.5618
vn 0.3706 -0.1018 0.9232
vn 0.8853 -0.2664 0.3811
vn -0.2074 0.3288 0.9213
vn -0.5102 0.7732 0.3767
vn 0.2244 0.3236 0.9192
vn 0.5323 0.7607 0.3715
vn -0.3637 -0.0930 0.9269
vn -0.8876 -0.2451 0.3900
vn -0.2254 0.3161 0.9216
vn -0.5536 0.7424 0.3773
vn -0.0108 -0.3720 0.9282
vn -0.0357 -0.9188 0.3932
vn -0.3571 -0.1140 0.9271
vn -0.8717 -0.2959 0.3905
vn 0.3636 -0.1227 0.9234
vn 0.8683 -0.3168 0.3818
vn 0.0112 -0.3723 0.9281
vn 0.0176 -0.9194 0.3929
vn 0.2421 0.3105 0.9192
vn 0.5750 0.7289 0.3716
vn 0.8814 -0.2749 -0.3842
vn 0.3611 -0.1224 -0.9244
vn -0.5141 0.7646 -0.3886
vn -0.2169 0.3082 -0.9263
vn 0.5284 0.7521 -0.3938
vn 0.2149 0.3030 -0.9284
vn -0.8915 -0.2537 -0.3753
vn -0.3732 -0.1136 -0.9208
vn -0.5575 0.7339 -0.3880
vn -0.2349 0.2954 -0.9260
vn -0.0396 -0.9273 -0.3721
vn -0.0203 -0.3927 -0.9195
vn -0.8757 -0.3045 -0.3748
vn -0.3667 -0.1347 -0.9206
vn 0.8643 -0.3254 -0.3835
vn 0.3541 -0.1433 -0.9242
vn 0.0136 -0.9280 -0.3724
vn 0.0017 -0.3929 -0.9196
vn 0.5711 0.7203 -0.3937
vn 0.2326 0.2898 -0.9284
vn -0.9987 0.0503 0.0046
vn -0.8242 0.5663 -0.0021
vn -0.3979 -0.9173 0.0123
vn -0.8488 0.5288 -0.0015
vn 0.9975 0.0711 -0.0059
vn -0.2173 0.9761 -0.0098
vn 0.2838 0.9588 -0.0122
vn -0.2609 0.9653 -0.0094
vn 0.7785 -0.6277 0.0030
vn 0.3340 -0.9425 0.0088
vn 0.8612 0.5082 -0.0101
vn 0.3759 -0.9266 0.0084
vn -0.7932 -0.6088 0.0109
vn -0.3564 -0.9343 0.0123
vn -0.9955 0.0950 0.0041
vn 0.2406 0.9706 -0.0121
vn 0.9996 0.0263 -0.0054
vn 0.8375 0.5463 -0.0104
vn 0.7495 -0.6619 0.0035
vn -0.7651 -0.6438 0.0111
vn 0.0051 0.0112 0.9999
vn 0.7419 0.4753 0.4730
vn 0.6192 0.2003 0.7593
vn 0.8780 0.0388 0.4771
vn 0.8396 0.0657 0.5393
vn -0.3095 0.7789 0.5455
vn 0.1053 0.1455 0.9837
vn 0.2412 0.8483 0.4714
vn -0.2160 0.8538 0.4737
vn 0.0116 0.6529 0.7574
vn 0.2046 0.8203 0.5341
vn -0.8286 -0.0520 0.5574
vn -0.0919 0.1479 0.9847
vn -0.7255 0.4929 0.4803
vn -0.8720 0.0598 0.4859
vn -0.6065 0.2150 0.7654
vn -0.7092 0.4497 0.5430
vn -0.1987 -0.8025 0.5626
vn -0.1550 -0.0389 0.9871
vn -0.6861 -0.5362 0.4916
vn -0.3195 -0.8094 0.4928
vn -0.3811 -0.5082 0.7723
vn -0.6391 -0.5340 0.5536
vn 0.7097 -0.4354 0.5538
vn 0.0031 -0.1567 0.9876
vn 0.3049 -0.8169 0.4897
vn 0.6779 -0.5526 0.4848
vn 0.3765 -0.5173 0.7686
vn 0.3181 -0.7713 0.5513
vn 0.6413 0.5419 0.5432
vn 0.1640 -0.0427 0.9855
vn 0.7369 0.4645 -0.4911
vn 0.8730 0.0280 -0.4869
vn 0.6113 0.1832 -0.7699
vn 0.8270 -0.0843 -0.5559
vn 0.0951 0.1235 -0.9878
vn -0.1851 0.8127 -0.5525
vn 0.2362 0.8375 -0.4927
vn 0.0038 0.6358 -0.7718
vn -0.2210 0.8430 -0.4904
vn 0.3278 0.7588 -0.5628
vn -0.1020 0.1258 -0.9868
vn -0.8379 0.0736 -0.5409
vn -0.7304 0.4821 -0.4837
vn -0.6144 0.1979 -0.7638
vn -0.8769 0.0490 -0.4781
vn -0.6283 0.5448 -0.5554
vn -0.1652 -0.0609 -0.9844
vn -0.3366 -0.7756 -0.5339
vn -0.6911 -0.5470 -0.4724
vn -0.3889 -0.5253 -0.7568
vn -0.3244 -0.8202 -0.4713
vn -0.7201 -0.4307 -0.5441
vn -0.0071 -0.1787 -0.9839
vn 0.6260 -0.5614 -0.5413
vn 0.2999 -0.8276 -0.4744
vn 0.3686 -0.5344 -0.7606
vn 0.6730 -0.5634 -0.4793
vn 0.1793 -0.8195 -0.5444
vn 0.1538 -0.0647 -0.9860
vn 0.7196 0.4203 -0.5527
s off
f 37/1/1 113/2/1 43/3/1
f 16/4/2 92/5/2 22/6/2
f 128/7/3 100/8/3 86/9/3
f 44/10/4 120/11/4 50/12/4
f 23/13/5 99/14/5 29/15/5
f 1/16/6 78/17/6 8/18/6
f 51/19/7 127/20/7 57/21/7
f 30/22/8 106/23/8 36/24/8
f 9/25/9 85/26/9 15/27/9
f 58/28/10 134/29/10 64/30/10
f 65/31/11 72/32/11 3/33/11
f 4/34/12 7/35/12 1/16/12
f 6/36/13 4/34/13 2/37/13
f 7/35/14 6/36/14 3/33/14
f 8/18/15 12/38/15 14/39/15
f 9/25/16 12/38/16 11/40/16
f 14/39/17 13/41/17 10/42/17
f 18/43/18 21/44/18 15/27/18
f 20/45/19 18/43/19 16/4/19
f 21/44/20 20/45/20 17/46/20
f 22/6/21 26/47/21 28/48/21
f 23/13/22 26/47/22 25/49/22
f 28/48/23 27/50/23 24/51/23
f 32/52/24 35/53/24 29/15/24
f 34/54/25 32/52/25 30/22/25
f 35/53/26 34/54/26 31/55/26
f 36/24/27 40/56/27 42/57/27
f 37/1/28 40/56/28 39/58/28
f 42/57/29 41/59/29 38/60/29
f 46/61/30 49/62/30 43/3/30
f 48/63/31 46/61/31 44/10/31
f 49/62/32 48/63/32 45/64/32
f 50/12/33 54/65/33 56/66/33
f 51/19/34 54/65/34 53/67/34
f 56/66/35 55/68/35 52/69/35
f 60/70/36 63/71/36 57/21/36
f 62/72/37 60/70/37 58/28/37
f 63/71/38 62/72/38 59/73/38
f 64/30/39 68/74/39 70/75/39
f 65/31/40 68/74/40 67/76/40
f 70/75/41 69/77/41 66/78/41
f 74/79/42 77/80/42 71/81/42
f 76/82/43 74/79/43 72/32/43
f 77/80/44 76/82/44 73/83/44
f 78/17/45 82/84/45 84/85/45
f 83/86/46 81/87/46 79/88/46
f 80/89/47 82/84/47 83/86/47
f 88/90/48 91/91/48 85/26/48
f 90/92/49 88/90/49 86/9/49
f 91/91/50 90/92/50 87/93/50
f 92/5/51 96/94/51 98/95/51
f 97/96/52 95/97/52 93/98/52
f 94/99/53 96/94/53 97/96/53
f 102/100/54 105/101/54 99/14/54
f 104/102/55 102/100/55 100/8/55
f 105/101/56 104/102/56 101/103/56
f 106/23/57 110/104/57 112/105/57
f 111/106/58 109/107/58 107/108/58
f 108/109/59 110/104/59 111/106/59
f 116/110/60 119/111/60 113/2/60
f 118/112/61 116/110/61 114/113/61
f 119/111/62 118/112/62 115/114/62
f 120/11/63 124/115/63 126/116/63
f 125/117/64 123/118/64 121/119/64
f 122/120/65 124/115/65 125/117/65
f 130/121/66 133/122/66 127/20/66
f 132/123/67 130/121/67 128/7/67
f 133/122/68 132/123/68 129/124/68
f 134/29/69 138/125/69 140/126/69
f 139/127/70 137/128/70 135/129/70
f 136/130/71 138/125/71 139/127/71
f 10/42/72 4/34/72 14/39/72
f 14/39/73 1/16/73 8/18/73
f 10/42/74 21/44/74 17/46/74
f 13/41/75 15/27/75 21/44/75
f 24/51/76 20/45/76 28/48/76
f 28/48/77 16/4/77 22/6/77
f 24/51/78 35/53/78 31/55/78
f 27/50/79 29/15/79 35/53/79
f 38/60/80 34/54/80 42/57/80
f 42/57/81 30/22/81 36/24/81
f 38/60/82 49/62/82 45/64/82
f 41/59/83 43/3/83 49/62/83
f 52/69/84 48/63/84 56/66/84
f 56/66/85 44/10/85 50/12/85
f 52/69/86 63/71/86 59/73/86
f 55/68/87 57/21/87 63/71/87
f 66/78/88 62/72/88 70/75/88
f 70/75/89 58/28/89 64/30/89
f 66/78/90 6/36/90 2/37/90
f 69/77/91 3/33/91 6/36/91
f 71/81/92 81/87/92 78/17/92
f 77/80/93 79/88/93 81/87/93
f 85/26/94 83/86/94 88/90/94
f 88/90/95 79/88/95 86/9/95
f 87/93/96 95/97/96 92/5/96
f 90/92/97 93/98/97 95/97/97
f 99/14/98 97/96/98 102/100/98
f 102/100/99 93/98/99 100/8/99
f 101/103/100 109/107/100 106/23/100
f 104/102/101 107/108/101 109/107/101
f 113/2/102 111/106/102 116/110/102
f 116/110/103 107/108/103 114/113/103
f 115/114/104 123/118/104 120/11/104
f 118/112/105 121/119/105 123/118/105
f 127/20/106 125/117/106 130/121/106
f 130/121/107 121/119/107 128/7/107
f 129/124/108 137/128/108 134/29/108
f 132/123/109 135/129/109 137/128/109
f 72/32/110 139/127/110 76/82/110
f 76/82/111 135/129/111 73/83/111
f 99/14/112 32/52/112 29/15/112
f 105/101/113 30/22/113 32/52/113
f 37/1/114 112/105/114 108/109/114
f 39/58/115 106/23/115 112/105/115
f 78/17/116 11/40/116 8/18/116
f 84/85/117 9/25/117 11/40/117
f 16/4/118 91/91/118 87/93/118
f 18/43/119 85/26/119 91/91/119
f 127/20/120 60/70/120 57/21/120
f 133/122/121 58/28/121 60/70/121
f 65/31/122 140/126/122 136/130/122
f 140/126/123 64/30/123 134/29/123
f 44/10/124 119/111/124 115/114/124
f 46/61/125 113/2/125 119/111/125
f 23/13/126 98/95/126 94/99/126
f 98/95/127 22/6/127 92/5/127
f 1/16/128 74/79/128 71/81/128
f 7/35/129 72/32/129 74/79/129
f 51/19/130 126/116/130 122/120/130
f 53/67/131 120/11/131 126/116/131
f 31/55/132 59/73/132 2/37/132
f 37/1/1 108/109/1 113/2/1
f 16/4/2 87/93/2 92/5/2
f 86/9/3 79/88/3 73/83/3
f 73/83/3 135/129/3 128/7/3
f 128/7/3 121/119/3 114/113/3
f 114/113/3 107/108/3 100/8/3
f 100/8/3 93/98/3 86/9/3
f 86/9/3 73/83/3 128/7/3
f 128/7/3 114/113/3 100/8/3
f 44/10/4 115/114/4 120/11/4
f 23/13/5 94/99/5 99/14/5
f 1/16/6 71/81/6 78/17/6
f 51/19/7 122/120/7 127/20/7
f 30/22/8 101/103/8 106/23/8
f 9/25/9 80/89/9 85/26/9
f 58/28/10 129/124/10 134/29/10
f 65/31/11 136/130/11 72/32/11
f 4/34/133 5/131/133 7/35/133
f 6/36/134 5/131/134 4/34/134
f 7/35/135 5/131/135 6/36/135
f 8/18/136 11/40/136 12/38/136
f 9/25/137 13/41/137 12/38/137
f 14/39/138 12/38/138 13/41/138
f 18/43/139 19/132/139 21/44/139
f 20/45/140 19/132/140 18/43/140
f 21/44/141 19/132/141 20/45/141
f 22/6/142 25/49/142 26/47/142
f 23/13/143 27/50/143 26/47/143
f 28/48/144 26/47/144 27/50/144
f 32/52/145 33/133/145 35/53/145
f 34/54/146 33/133/146 32/52/146
f 35/53/147 33/133/147 34/54/147
f 36/24/148 39/58/148 40/56/148
f 37/1/149 41/59/149 40/56/149
f 42/57/150 40/56/150 41/59/150
f 46/61/151 47/134/151 49/62/151
f 48/63/152 47/134/152 46/61/152
f 49/62/153 47/134/153 48/63/153
f 50/12/154 53/67/154 54/65/154
f 51/19/155 55/68/155 54/65/155
f 56/66/156 54/65/156 55/68/156
f 60/70/157 61/135/157 63/71/157
f 62/72/158 61/135/158 60/70/158
f 63/71/159 61/135/159 62/72/159
f 64/30/160 67/76/160 68/74/160
f 65/31/161 69/77/161 68/74/161
f 70/75/162 68/74/162 69/77/162
f 74/79/163 75/136/163 77/80/163
f 76/82/164 75/136/164 74/79/164
f 77/80/165 75/136/165 76/82/165
f 78/17/166 81/87/166 82/84/166
f 83/86/167 82/84/167 81/87/167
f 80/89/168 84/85/168 82/84/168
f 88/90/169 89/137/169 91/91/169
f 90/92/170 89/137/170 88/90/170
f 91/91/171 89/137/171 90/92/171
f 92/5/172 95/97/172 96/94/172
f 97/96/173 96/94/173 95/97/173
f 94/99/174 98/95/174 96/94/174
f 102/100/175 103/138/175 105/101/175
f 104/102/176 103/138/176 102/100/176
f 105/101/177 103/138/177 104/102/177
f 106/23/178 109/107/178 110/104/178
f 111/106/179 110/104/179 109/107/179
f 108/109/180 112/105/180 110/104/180
f 116/110/181 117/139/181 119/111/181
f 118/112/182 117/139/182 116/110/182
f 119/111/183 117/139/183 118/112/183
f 120/11/184 123/118/184 124/115/184
f 125/117/185 124/115/185 123/118/185
f 122/120/186 126/116/186 124/115/186
f 130/121/187 131/140/187 133/122/187
f 132/123/188 131/140/188 130/121/188
f 133/122/189 131/140/189 132/123/189
f 134/29/190 137/128/190 138/125/190
f 139/127/191 138/125/191 137/128/191
f 136/130/192 140/126/192 138/125/192
f 10/42/72 2/37/72 4/34/72
f 14/39/73 4/34/73 1/16/73
f 10/42/74 13/41/74 21/44/74
f 13/41/75 9/25/75 15/27/75
f 24/51/76 17/46/76 20/45/76
f 28/48/77 20/45/77 16/4/77
f 24/51/78 27/50/78 35/53/78
f 27/50/79 23/13/79 29/15/79
f 38/60/80 31/55/80 34/54/80
f 42/57/81 34/54/81 30/22/81
f 38/60/82 41/59/82 49/62/82
f 41/59/83 37/1/83 43/3/83
f 52/69/84 45/64/84 48/63/84
f 56/66/85 48/63/85 44/10/85
f 52/69/86 55/68/86 63/71/86
f 55/68/87 51/19/87 57/21/87
f 66/78/88 59/73/88 62/72/88
f 70/75/89 62/72/89 58/28/89
f 66/78/90 69/77/90 6/36/90
f 69/77/91 65/31/91 3/33/91
f 71/81/92 77/80/92 81/87/92
f 77/80/93 73/83/93 79/88/93
f 85/26/94 80/89/94 83/86/94
f 88/90/95 83/86/95 79/88/95
f 87/93/96 90/92/96 95/97/96
f 90/92/97 86/9/97 93/98/97
f 99/14/98 94/99/98 97/96/98
f 102/100/99 97/96/99 93/98/99
f 101/103/100 104/102/100 109/107/100
f 104/102/101 100/8/101 107/108/101
f 113/2/102 108/109/102 111/106/102
f 116/110/103 111/106/103 107/108/103
f 115/114/104 118/112/104 123/118/104
f 118/112/105 114/113/105 121/119/105
f 127/20/106 122/120/106 125/117/106
f 130/121/107 125/117/107 121/119/107
f 129/124/108 132/123/108 137/128/108
f 132/123/109 128/7/109 135/129/109
f 72/32/110 136/130/110 139/127/110
f 76/82/111 139/127/111 135/129/111
f 99/14/112 105/101/112 32/52/112
f 105/101/113 101/103/113 30/22/113
f 37/1/114 39/58/114 112/105/114
f 39/58/115 36/24/115 106/23/115
f 78/17/116 84/85/116 11/40/116
f 84/85/117 80/89/117 9/25/117
f 16/4/118 18/43/118 91/91/118
f 18/43/119 15/27/119 85/26/119
f 127/20/120 133/122/120 60/70/120
f 133/122/121 129/124/121 58/28/121
f 65/31/122 67/76/122 140/126/122
f 140/126/123 67/76/123 64/30/123
f 44/10/124 46/61/124 119/111/124
f 46/61/125 43/3/125 113/2/125
f 23/13/126 25/49/126 98/95/126
f 98/95/127 25/49/127 22/6/127
f 1/16/128 7/35/128 74/79/128
f 7/35/129 3/33/129 72/32/129
f 51/19/130 53/67/130 126/116/130
f 53/67/131 50/12/131 120/11/131
f 2/37/132 10/42/132 17/46/132
f 17/46/132 24/51/132 31/55/132
f 31/55/132 38/60/132 45/64/132
f 45/64/132 52/69/132 59/73/132
f 59/73/132 66/78/132 2/37/132
f 2/37/132 17/46/132 31/55/132
f 31/55/132 45/64/132 59/73/132
